<?xml version="1.0" encoding="UTF-8" standalone="no"?><!DOCTYPE svg PUBLIC "-//W3C//DTD SVG 1.1//EN" "http://www.w3.org/Graphics/SVG/1.1/DTD/svg11.dtd"><svg width="100%" height="100%" viewBox="0 0 128 128" version="1.1" xmlns="http://www.w3.org/2000/svg" xmlns:xlink="http://www.w3.org/1999/xlink" xml:space="preserve" xmlns:serif="http://www.serif.com/" style="fill-rule:evenodd;clip-rule:evenodd;stroke-linejoin:round;stroke-miterlimit:2;">
    <g transform="matrix(0.795405,0,0,0.795405,13.0941,13.0941)">
        <g transform="matrix(1,0,0,1,-967.973,-423.771)">
            <path d="M1000.31,533.671L993.293,533.671C984.413,533.671 977.543,531.211 972.683,526.291C967.823,521.371 965.393,514.531 965.393,505.771L965.393,469.771C965.393,460.891 967.823,454.021 972.683,449.161C977.543,444.301 984.413,441.871 993.293,441.871L1033.61,441.871C1035.77,441.871 1036.85,442.891 1036.85,444.931L1036.85,530.611C1036.85,532.651 1035.77,533.671 1033.61,533.671L1022.27,533.671C1020.23,533.671 1019.21,532.651 1019.21,530.611L1019.21,524.131L1018.49,524.131C1015.61,530.491 1009.55,533.671 1000.31,533.671ZM1019.21,503.071L1019.21,458.971C1019.21,457.771 1018.55,457.171 1017.23,457.171L995.813,457.171C987.173,457.171 982.853,461.611 982.853,470.491L982.853,505.051C982.853,513.931 987.173,518.371 995.813,518.371L1004.45,518.371C1014.29,518.371 1019.21,513.271 1019.21,503.071Z" style="fill:rgb(0,53,84);"/>
        </g>
        <g transform="matrix(1,0,0,1,-544.645,-348.742)">
            <path d="M657.955,366.842L670.915,366.842C671.995,366.842 672.745,367.172 673.165,367.832C673.585,368.492 673.435,369.362 672.715,370.442L647.335,410.762L647.335,411.482L674.695,455.042C675.295,456.002 675.385,456.842 674.965,457.562C674.545,458.282 673.675,458.642 672.355,458.642L660.655,458.642C657.895,458.642 655.855,457.622 654.535,455.582L629.155,414.002C628.315,412.442 628.315,410.822 629.155,409.142L652.735,369.722C653.815,367.802 655.555,366.842 657.955,366.842Z" style="fill:rgb(5,130,202);"/>
        </g>
    </g>
</svg>