<?xml version="1.0" encoding="UTF-8" standalone="no"?><!DOCTYPE svg PUBLIC "-//W3C//DTD SVG 1.1//EN" "http://www.w3.org/Graphics/SVG/1.1/DTD/svg11.dtd"><svg width="100%" height="100%" viewBox="0 0 32 32" version="1.1" xmlns="http://www.w3.org/2000/svg" xmlns:xlink="http://www.w3.org/1999/xlink" xml:space="preserve" xmlns:serif="http://www.serif.com/" style="fill-rule:evenodd;clip-rule:evenodd;stroke-linejoin:round;stroke-miterlimit:2;"><path d="M32,3.2l-0,25.6c-0,1.766 -1.434,3.2 -3.2,3.2l-25.6,-0c-1.766,-0 -3.2,-1.434 -3.2,-3.2l-0,-25.6c-0,-1.766 1.434,-3.2 3.2,-3.2l25.6,0c1.766,0 3.2,1.434 3.2,3.2Z" style="fill:#ebebeb;"/><path d="M23.649,3.737l3.463,-0c0.289,-0 0.489,0.088 0.601,0.264c0.112,0.176 0.072,0.409 -0.12,0.697c0,0 -5.651,8.945 -6.781,10.773c-0.034,0.055 -0.034,0.138 0,0.192c1.218,1.972 7.31,11.639 7.31,11.639c0.16,0.256 0.184,0.481 0.072,0.673c-0.112,0.192 -0.344,0.288 -0.697,0.288l-3.126,0c-0.738,0 -1.283,-0.272 -1.635,-0.817l-6.781,-11.109c-0.225,-0.417 -0.225,-0.85 -0,-1.299l6.3,-10.532c0.288,-0.513 0.753,-0.769 1.394,-0.769Z" style="fill:#0582ca;"/></svg>